<svg id="Layer_1" data-name="Layer 1" xmlns="http://www.w3.org/2000/svg" viewBox="0 0 96.7 27.32"><defs><style>.cls-1{fill:#22b573;}</style></defs><path class="cls-1" d="M26.65,38.17V37.6L38,18.53H27.64V14.32H45.86v.56l-11.27,19H45.52v4.24Z" transform="translate(-26.65 -11.34)"/><path class="cls-1" d="M45.41,38.17V14.32h4V26.57H50v11.6Zm12.22-8.45a16.75,16.75,0,0,0-.2-2.55,4.45,4.45,0,0,0-1-2.19,3.23,3.23,0,0,0-2.59-1,4.14,4.14,0,0,0-1.8.39,3.18,3.18,0,0,0-1.42,1.52,6.92,6.92,0,0,0-.63,3.2l-2.58-1.22a9.36,9.36,0,0,1,.87-4,7,7,0,0,1,2.64-3,7.82,7.82,0,0,1,4.29-1.15,6.29,6.29,0,0,1,4.7,1.61,7,7,0,0,1,1.92,3.39,16.66,16.66,0,0,1,.37,3.38v10H57.63Z" transform="translate(-26.65 -11.34)"/><path class="cls-1" d="M71.26,38.66a9.77,9.77,0,0,1-4.82-1.17,8.39,8.39,0,0,1-3.3-3.28A9.49,9.49,0,0,1,62,29.46a10.66,10.66,0,0,1,1.15-5.08A8.29,8.29,0,0,1,66.34,21,8.93,8.93,0,0,1,71,19.78a8.37,8.37,0,0,1,4.77,1.32,7.71,7.71,0,0,1,2.92,3.74,12.57,12.57,0,0,1,.67,5.64H74.91V28.83a9.81,9.81,0,0,0-.38-3,3.12,3.12,0,0,0-1.2-1.65,3.77,3.77,0,0,0-2.13-.46,4.72,4.72,0,0,0-2.52.62,3.68,3.68,0,0,0-1.47,1.85,8.38,8.38,0,0,0-.48,3.06,7.45,7.45,0,0,0,.48,2.84,3.7,3.7,0,0,0,1.44,1.78,4.23,4.23,0,0,0,2.35.62,4.28,4.28,0,0,0,2.26-.58,3.76,3.76,0,0,0,1.45-1.68l4.5,1.3a8,8,0,0,1-1.87,2.77,8.32,8.32,0,0,1-2.78,1.78A9,9,0,0,1,71.26,38.66Zm-5.92-8.18V27.14H77.19v3.34ZM73,17.8H69.69l2.75-6.46h3.35Z" transform="translate(-26.65 -11.34)"/><path class="cls-1" d="M79.35,38.17V20.28h4v5.93h.57v12ZM90.15,27.6a5,5,0,0,0-.38-2,2.92,2.92,0,0,0-1.09-1.29A3.07,3.07,0,0,0,87,23.86a3,3,0,0,0-1.63.44,2.92,2.92,0,0,0-1.09,1.22,4.09,4.09,0,0,0-.39,1.82L82,26a5.84,5.84,0,0,1,.87-3.13,6.16,6.16,0,0,1,2.37-2.22,6.74,6.74,0,0,1,3.32-.81,6.2,6.2,0,0,1,3.44.87,5.21,5.21,0,0,1,2,2.35,8.13,8.13,0,0,1,.66,3.34V38.17h-4.5Zm10.76,0a5,5,0,0,0-.38-2,2.83,2.83,0,0,0-1.08-1.29,3.07,3.07,0,0,0-1.69-.45,3,3,0,0,0-1.63.44A2.92,2.92,0,0,0,95,25.52a4.09,4.09,0,0,0-.39,1.82l-1.89-1.26A6,6,0,0,1,96,20.65a6.71,6.71,0,0,1,3.25-.8,6.62,6.62,0,0,1,3.4.81,5.23,5.23,0,0,1,2.09,2.3,8,8,0,0,1,.71,3.45V38.17h-4.53Z" transform="translate(-26.65 -11.34)"/><path class="cls-1" d="M114.27,38.66a9.19,9.19,0,0,1-4.72-1.2,8.27,8.27,0,0,1-3.19-3.34,10.43,10.43,0,0,1-1.13-4.9,10.2,10.2,0,0,1,1.15-4.91A8.3,8.3,0,0,1,109.59,21,9.77,9.77,0,0,1,119,21a8.32,8.32,0,0,1,3.2,3.35,10.23,10.23,0,0,1,1.15,4.88,10.31,10.31,0,0,1-1.15,4.9A8.35,8.35,0,0,1,119,37.46,9.19,9.19,0,0,1,114.27,38.66Zm0-4.2a4.11,4.11,0,0,0,2.38-.66A3.93,3.93,0,0,0,118.1,32a7.14,7.14,0,0,0,.48-2.74,6,6,0,0,0-1.11-3.83,3.86,3.86,0,0,0-3.2-1.4,4.13,4.13,0,0,0-2.39.65,3.76,3.76,0,0,0-1.42,1.82,7.42,7.42,0,0,0-.47,2.76,7,7,0,0,0,.49,2.8,3.77,3.77,0,0,0,1.44,1.81A4.14,4.14,0,0,0,114.27,34.46ZM116,17.8h-3.33l2.75-6.46h3.35Z" transform="translate(-26.65 -11.34)"/></svg>