<svg id="Layer_1" data-name="Layer 1" xmlns="http://www.w3.org/2000/svg" viewBox="0 0 165.63 28.32"><defs><style>.cls-1{fill:#22b573;}</style></defs><path class="cls-1" d="M11.66,41.45v-.57L23,21.81H12.65V17.6H30.87v.56L19.6,37.21H30.53v4.24Z" transform="translate(-11.66 -14.62)"/><path class="cls-1" d="M30.42,41.45V17.6h4V29.85H35v11.6ZM42.64,33a15.88,15.88,0,0,0-.2-2.55,4.46,4.46,0,0,0-1-2.19,3.23,3.23,0,0,0-2.59-1,4.22,4.22,0,0,0-1.8.39,3.21,3.21,0,0,0-1.42,1.52A7,7,0,0,0,35,32.37l-2.58-1.22a9.36,9.36,0,0,1,.87-4,7.05,7.05,0,0,1,2.64-3A7.84,7.84,0,0,1,40.22,23a6.27,6.27,0,0,1,4.7,1.61A7,7,0,0,1,46.84,28a16.47,16.47,0,0,1,.37,3.38v10H42.64Z" transform="translate(-11.66 -14.62)"/><path class="cls-1" d="M56.27,41.94a9.74,9.74,0,0,1-4.82-1.17,8.46,8.46,0,0,1-3.3-3.28A9.51,9.51,0,0,1,47,32.74a10.72,10.72,0,0,1,1.15-5.08,8.31,8.31,0,0,1,3.2-3.39A9,9,0,0,1,56,23.06a8.45,8.45,0,0,1,4.77,1.32,7.68,7.68,0,0,1,2.92,3.74,12.55,12.55,0,0,1,.67,5.64H59.92V32.11a9.54,9.54,0,0,0-.38-3,3.11,3.11,0,0,0-1.2-1.65A3.86,3.86,0,0,0,56.21,27a4.7,4.7,0,0,0-2.52.62,3.71,3.71,0,0,0-1.47,1.85,8.47,8.47,0,0,0-.48,3.06,7.43,7.43,0,0,0,.48,2.84,3.67,3.67,0,0,0,1.44,1.78,4.26,4.26,0,0,0,2.35.62,4.31,4.31,0,0,0,2.26-.58,3.74,3.74,0,0,0,1.45-1.68l4.5,1.3a8,8,0,0,1-1.87,2.77,8.22,8.22,0,0,1-2.78,1.78A9,9,0,0,1,56.27,41.94Zm-5.92-8.18V30.42H62.2v3.34Zm7.7-12.68H54.7l2.75-6.46H60.8Z" transform="translate(-11.66 -14.62)"/><path class="cls-1" d="M64.36,41.45V23.56h4v5.93h.57v12Zm10.8-10.57a4.89,4.89,0,0,0-.38-2,2.85,2.85,0,0,0-1.09-1.29A3.06,3.06,0,0,0,72,27.14a3,3,0,0,0-1.63.44,2.87,2.87,0,0,0-1.09,1.22,4.06,4.06,0,0,0-.39,1.82L67,29.29a5.83,5.83,0,0,1,.87-3.13,6.18,6.18,0,0,1,2.37-2.22,6.86,6.86,0,0,1,3.32-.81A6.24,6.24,0,0,1,77,24a5.23,5.23,0,0,1,2,2.35,8.13,8.13,0,0,1,.66,3.34V41.45h-4.5Zm10.76,0a4.89,4.89,0,0,0-.38-2,2.83,2.83,0,0,0-1.08-1.29,3.07,3.07,0,0,0-1.69-.45,3,3,0,0,0-1.63.44,2.94,2.94,0,0,0-1.09,1.22,4.06,4.06,0,0,0-.39,1.82l-1.89-1.26A6,6,0,0,1,81,23.93a6.74,6.74,0,0,1,3.25-.8,6.66,6.66,0,0,1,3.4.81,5.18,5.18,0,0,1,2.09,2.3,7.93,7.93,0,0,1,.71,3.45V41.45H85.92Z" transform="translate(-11.66 -14.62)"/><path class="cls-1" d="M99.28,41.94a9.18,9.18,0,0,1-4.72-1.2,8.28,8.28,0,0,1-3.19-3.34,10.38,10.38,0,0,1-1.13-4.9,10.2,10.2,0,0,1,1.15-4.91,8.3,8.3,0,0,1,3.21-3.33,9.79,9.79,0,0,1,9.41,0,8.27,8.27,0,0,1,3.2,3.35,10.25,10.25,0,0,1,1.15,4.88,10.28,10.28,0,0,1-1.15,4.9A8.35,8.35,0,0,1,104,40.74,9.17,9.17,0,0,1,99.28,41.94Zm0-4.2a4.14,4.14,0,0,0,2.38-.66,3.94,3.94,0,0,0,1.45-1.84,7.21,7.21,0,0,0,.48-2.74,6,6,0,0,0-1.11-3.83,3.86,3.86,0,0,0-3.2-1.4,4.16,4.16,0,0,0-2.39.65,3.78,3.78,0,0,0-1.42,1.82A7.46,7.46,0,0,0,95,32.5a7.16,7.16,0,0,0,.49,2.8,3.8,3.8,0,0,0,1.44,1.81A4.13,4.13,0,0,0,99.28,37.74ZM101,21.08H97.67l2.75-6.46h3.35Z" transform="translate(-11.66 -14.62)"/><path class="cls-1" d="M142.66,42.45v-.57L154,22.81H143.65V18.6h18.22v.56L150.6,38.21h10.93v4.24Z" transform="translate(-11.66 -14.62)"/><path class="cls-1" d="M169.13,42.94a9.81,9.81,0,0,1-4.83-1.17A8.37,8.37,0,0,1,161,38.49a9.52,9.52,0,0,1-1.19-4.75A10.84,10.84,0,0,1,161,28.66a8.33,8.33,0,0,1,3.21-3.39,9,9,0,0,1,4.68-1.21,8.4,8.4,0,0,1,4.77,1.32,7.7,7.7,0,0,1,2.93,3.74,12.83,12.83,0,0,1,.67,5.64h-4.46V33.11a9.54,9.54,0,0,0-.38-3,3.09,3.09,0,0,0-1.19-1.65,3.87,3.87,0,0,0-2.14-.53,4.75,4.75,0,0,0-2.52.62,3.71,3.71,0,0,0-1.47,1.85,8.47,8.47,0,0,0-.48,3.06,7.43,7.43,0,0,0,.48,2.84,3.67,3.67,0,0,0,1.44,1.78,4.73,4.73,0,0,0,4.61,0,3.68,3.68,0,0,0,1.45-1.68l4.51,1.3a8.17,8.17,0,0,1-1.87,2.77,8.36,8.36,0,0,1-2.79,1.78A8.9,8.9,0,0,1,169.13,42.94Zm-5.93-8.18V31.42h11.86v3.34Zm7.7-12.68h-3.34l2.74-6.46h3.35Z" transform="translate(-11.66 -14.62)"/></svg>