<svg id="Layer_1" data-name="Layer 1" xmlns="http://www.w3.org/2000/svg" viewBox="0 0 34.67 27.32"><defs><style>.cls-1{fill:#22b573;}</style></defs><path class="cls-1" d="M7.66,38.17V37.6L19,18.53H8.65V14.32H26.87v.56l-11.27,19H26.53v4.24Z" transform="translate(-7.66 -11.34)"/><path class="cls-1" d="M34.13,38.66a9.83,9.83,0,0,1-4.83-1.17A8.46,8.46,0,0,1,26,34.21a9.6,9.6,0,0,1-1.19-4.75A10.91,10.91,0,0,1,26,24.38,8.38,8.38,0,0,1,29.21,21a9.06,9.06,0,0,1,4.68-1.21,8.37,8.37,0,0,1,4.77,1.32,7.62,7.62,0,0,1,2.93,3.74,12.58,12.58,0,0,1,.67,5.64H37.8V28.83a9.23,9.23,0,0,0-.38-3,3,3,0,0,0-1.19-1.65,3.81,3.81,0,0,0-2.14-.53,4.74,4.74,0,0,0-2.52.62,3.78,3.78,0,0,0-1.47,1.85,8.83,8.83,0,0,0-.48,3.06A7.65,7.65,0,0,0,30.1,32a3.76,3.76,0,0,0,1.44,1.78,4.73,4.73,0,0,0,4.61,0,3.59,3.59,0,0,0,1.45-1.68l4.51,1.3a8.13,8.13,0,0,1-1.87,2.77A8.36,8.36,0,0,1,37.45,38,9,9,0,0,1,34.13,38.66ZM28.2,30.48V27.14H40.06v3.34ZM35.9,17.8H32.56l2.74-6.46h3.35Z" transform="translate(-7.66 -11.34)"/></svg>